<?xml version="1.0" encoding="UTF-8"?>
<!DOCTYPE svg PUBLIC "-//W3C//DTD SVG 1.1//EN" "http://www.w3.org/Graphics/SVG/1.1/DTD/svg11.dtd">
<!-- Creator: CorelDRAW 2020 (64-Bit) -->
<svg xmlns="http://www.w3.org/2000/svg" xml:space="preserve" width="88mm" height="88mm" version="1.1" style="shape-rendering:geometricPrecision; text-rendering:geometricPrecision; image-rendering:optimizeQuality; fill-rule:evenodd; clip-rule:evenodd"
viewBox="0 0 8800 8800"
 xmlns:xlink="http://www.w3.org/1999/xlink"
 xmlns:xodm="http://www.corel.com/coreldraw/odm/2003">
 <defs>
  <style type="text/css">
   <![CDATA[
    .fil1 {fill:#4E3529}
    .fil2 {fill:#F4F3ED}
    .fil0 {fill:#F81C09}
    .fil3 {fill:#FDE2DC}
   ]]>
  </style>
 </defs>
 <g id="Capa_x0020_1">
  <metadata id="CorelCorpID_0Corel-Layer"/>
  <g id="_2564386740000">
   <path class="fil0" d="M5371.48 5795.35c-13.44,-47.5 -4.88,-259.35 -4.11,-324.37l72.46 4.93 -0.4 62.48 1.44 195.07 158.37 0.17 -3.72 61.61 -224.04 0.11zm-910.06 -323.24l71.51 -1.18 0.43 262.17 157.52 0.21 -4.92 61.98 -225.47 -0.56 0.93 -322.62zm-633.75 0.04l73.49 -0.6 -4.3 323.94 -68.86 -2.08 -0.33 -321.26zm172.22 322.35c2.16,-39.14 111.99,-260.48 135.84,-323.11l92.3 -0.86c22.53,71.78 130.57,271.21 133.24,324.67 -112.41,0.55 -58.12,7.87 -106.26,-58.19 -235.39,10.37 -124.47,-23.59 -185.85,58.57l-69.27 -1.08zm1983.99 -323.29c2.46,148.93 32.08,330.17 -142.04,329.88 -176.36,-0.3 -142.62,-177.5 -142.5,-331.18l73.06 6.9c-1.25,139.51 -25.21,260.14 69.37,260.15 94.34,0.02 71.82,-125.33 68.53,-263.69l73.58 -2.06zm492.25 121.14l1723.08 0.59 -3.9 79.47 -1717.35 0.45 -1.83 -80.51zm-5783.8 -0.14c589.38,1.03 1189.03,-5.51 1775.69,1.65l-4.78 77.89 -1767.27 0.79 -3.64 -80.33zm2409.39 -122.83c234.56,-55.44 300.06,273.89 95.07,325.33 -245.31,61.55 -306.84,-275.28 -95.07,-325.33zm3012.77 7.97c45.17,-14.58 167.37,-9.38 212.21,6.95 68.51,24.95 71.01,97.63 11.07,136.25 25.71,24.19 51.92,20.86 55.39,73.08 2.88,43.47 -17.22,67.23 -45.89,82.43 -44.7,23.69 -178.42,23.56 -233.61,16.06l0.83 -314.77zm-864.52 272.36c-106.42,104.56 -296.05,45.62 -291.94,-121.05 4.01,-162.66 177.66,-194.44 290.68,-117.16 -11.41,27.56 -21.99,27.89 -41.57,49.03 -58.96,-41.72 -172.58,-42.54 -174.91,67.16 -1.95,92.04 82.4,141.25 165.35,86.49l10.2 -7.13c23.27,13.06 26.92,16.86 42.19,42.66zm-1538.32 -8.13c-49.2,98.56 -289.75,85.05 -290.87,-105.69 -0.96,-162.27 183.72,-219.8 290.25,-123.13 -13.1,29.05 -24.29,26.18 -45.76,46.74 -149.78,-116.75 -235.7,128.54 -112.16,171.3 56.81,19.67 82.07,-9.4 118.53,-22.59 18.77,14.65 20.58,12.41 40.01,33.37zm-1064.17 -32.36c31.64,10.56 53.24,27.78 97.93,28.13 36.68,0.29 80,-13.99 49.13,-51.88 -23.77,-29.17 -226.7,-21.03 -175.38,-159.12 26.14,-70.34 181.93,-80.39 238.29,-20.48 -10.03,24.27 -11.87,25.97 -37.59,44.56 -109.39,-57.96 -197.16,20.09 -67.87,45.99 67.78,13.57 156.93,46.19 120.15,141.53 -33.04,85.66 -194.42,73.64 -259.85,18.93l35.19 -47.66zm-2105.02 -284.62c0,84.29 -12.85,428.8 13.13,474.53 1.17,2.05 11.93,15.7 14.37,18.14 21.98,21.98 39.98,27.5 86.29,27.5l7575.05 0c26.3,0 37.99,-1.84 56.96,-8.06 35.41,-11.61 10.47,-13.14 48.7,-16.32 3.69,-44.27 24.39,-32.38 24.39,-105.66 0,-103.72 15.36,-371.98 -17.17,-437.98l-30.86 -42.29c-1.25,-1.12 -2.97,-2.8 -4.29,-3.84 -1.34,-1.05 -3.21,-2.54 -4.62,-3.51 -20.29,-13.81 -45.42,-16.3 -73.11,-16.3 -693.87,0 -7545.08,-11.35 -7609.78,5.91 -29.72,7.93 -59.99,20.86 -71.36,50.55 -6.4,16.69 -7.7,33.46 -7.7,57.33z"/>
   <path class="fil0" d="M3484.7 3213.85c0,86.02 -10.49,168.95 20.04,231.92 8.51,17.56 7.31,16.04 16.38,32.39 4.53,8.17 4.31,8.2 9.17,15.21 0.39,0.56 13.97,16.83 14.82,17.69l27.66 21.11c154.35,91.07 347,6.79 415.85,6.79 174.31,0 110.31,0.78 162.56,146.3 41.02,114.24 32.51,388.13 32.51,503.92 0,63.48 -30.23,160.91 -45.65,222.57 -7.63,30.51 -12.64,50.93 -19.33,78.2 -12.5,51 -29.36,87.06 -42.44,136.37 -6.95,26.22 -9.37,41.61 -21.24,68.17 -25.18,56.3 -26.68,229.01 -7.9,289.59 19.2,61.9 14.62,47.65 39.51,82.41 15.08,21.05 21.75,36.2 45.11,52.43 120.76,83.91 221.23,78.1 344.54,78.1 50.61,0 131.17,-34.86 170.37,-65.33l76.58 -77.85c42.14,-59.52 94.41,-212.35 94.41,-279.46l-24.09 -414.8c-25.01,-99.55 -31.04,-172.66 -42.03,-274.96 -3.64,-33.9 -14.42,-46.55 -15.48,-90.19 -0.79,-33 3.07,-73.01 -0.59,-105.07 -3.89,-34.18 -15.34,-46.41 -15.34,-90.31 0,-92.71 -15.71,-257.79 21.99,-303.12 62.19,-74.74 123.7,-21.99 205.58,-21.99 157.77,0 293.38,-2.19 443.12,-85.19 25.42,-14.09 6.81,-1.4 24.49,-16.15 76.95,-64.18 84.4,-223.49 42.38,-335.49 -14.93,-39.78 -47,-74 -79.53,-99.29l-9.56 -6.69c-125.02,-80.8 -259.54,-58.64 -420.9,-58.64 -43.97,0 -56.18,11.54 -90.32,15.33 -55.28,6.15 -136.01,7.33 -207.18,20.39 -157.34,28.88 -230.52,-3.06 -322,19.38 -167.86,41.17 -437.7,-27.31 -636.36,38.24 -89.2,29.44 -76.86,28.8 -138.26,89.32 -10.24,10.09 -3.42,2.52 -12.21,12.17 -30.94,33.98 -56.66,97.36 -56.66,146.53z"/>
   <path class="fil0" d="M1208.93 4074.17c-77.3,-99.18 -3.93,-303.47 134.98,-368.16 52.49,-24.43 119.52,-13.71 153.65,15.52 29.71,25.45 43.95,84.09 56.56,129.85 21.53,78.2 -20.67,94.99 -64.22,123.35 -54.8,35.68 -209.97,97.53 -280.97,99.44zm-601.45 -567.72c0,142.22 -15.12,180.63 27.92,280.94 68.59,159.83 85.87,261.32 85.87,434.3 0,52.97 -16.11,63.57 -16.6,121.57 -0.38,44 4.47,93.68 -4.29,133.89 -28.69,131.69 -80.39,347.9 -17.18,473.47 10.7,21.24 26.05,31.08 46.17,51.36 59.04,59.52 34.95,36.57 111.57,67.24 110.27,44.15 100.97,30.27 254.2,30.27 73.98,0 190.93,-51.51 243.94,-105.56 81.88,-83.49 97.43,-104.57 97.43,-235.81 0,-56.62 -19.95,-81.17 -40.81,-138 -9.24,-25.19 -2.85,-6.92 -12.23,-28.41 -10.06,-23.07 -11.98,-30.57 -11.98,-61.16 133.27,0 80.97,-5.17 174.48,-36.84 46.75,-15.84 84.64,-24.96 127.45,-43.23 221.74,-94.61 136.99,-52.73 298.84,-164.45l10.08 -6.18c25.59,-16.84 39.57,-40.75 68.21,-78.08 38.75,-50.52 101.2,-235.9 101.2,-288.93l0 -292.6c0,-54.69 -43.12,-139.88 -71.82,-188.26l-94.72 -100.36c-10.28,-8.71 -6.65,-6.04 -19.07,-13.43 -106.13,-63.2 -213.5,-71.66 -351.11,-71.54l-276.05 -32.8c-117.49,0 -286.05,-11.76 -394.9,11.49 -24.17,5.16 -62.15,6.35 -78.65,10.76l-121.32 57.49c-56.24,28.51 -96.89,81.21 -121.9,138.19 -10.25,23.36 -14.73,42.42 -14.73,74.67z"/>
   <path class="fil0" d="M6503.9 4213.56c-38.23,171.54 -198.15,287.87 -385.55,292.77 -220.85,5.78 -358.72,-56.31 -394.67,-286.3 -15.54,-99.37 16.58,-204.64 90.96,-237.3 29.14,-12.8 248.13,-55.3 283.31,-33.85 160.67,97.95 69.86,59.04 253.31,89.72 90.75,15.18 176.24,69.06 152.64,174.96zm-1214.84 -170.68c0,171.02 -11.16,333.41 66.24,502.71l63.02 123.91c8.08,12.1 10.75,13.16 20.86,27.91l16.52 24.12c41.81,50.3 118.72,121.19 181.57,151.66 40.87,19.81 33.11,23.96 54.59,34.82 7.21,3.65 29.13,10.14 36.09,12.67l95.51 42.67c20.84,7.3 47.15,15.84 72.88,24.65 92.94,31.82 275.02,46.63 368.16,14.06l144.97 -50.09c69.43,-31.73 73.62,-37.1 129.15,-74.04 62.23,-41.39 121.07,-91.8 164.1,-152.89 8.4,-11.92 2.31,-2.39 10.59,-13.79 4.44,-6.1 4.03,-4.99 9.96,-14.42 50.46,-80.37 114.12,-187.5 136.39,-278.13 7.02,-28.58 4.75,-48.31 18.28,-79.25 11.32,-25.9 4.25,2.06 14.26,-34.51 24.01,-87.76 37.55,-287.27 8.42,-369.99 -20.91,-59.36 -39.35,-152.04 -68.32,-216.14l-185.88 -228.64c-142.53,-144.59 -255.72,-67.27 -307.89,-114.75 -30.13,-27.43 -20.44,-29.16 -31.64,-65.9 -5.77,-18.9 0.42,-19.45 -27.46,-37.56 -96.53,-62.69 -294.71,-6 -392.99,43.48 -26.88,13.54 -47.91,23.97 -70.43,35.23 -23.47,11.74 -44.6,22.38 -65.03,32.5l-154.88 97.08c-18.58,15.44 -16.42,11.12 -33.55,23.35 -10.52,7.5 -16.68,13.8 -25.82,22.95l-35.85 37.29c-1.04,1.36 -2.35,3.38 -3.35,4.78l-42.38 55.15c-40.62,44.16 -116.02,193.87 -130.57,251.43 -11.85,46.87 -35.52,120.42 -35.52,167.68z"/>
   <path class="fil0" d="M2946.37 4226.99l-185.28 -14.49c3.62,-52.58 40.32,-172.55 97.09,-169.57 46.77,2.45 101.91,126.28 88.19,184.06zm-875.89 433.6c0,114.68 -5.59,231.07 99.15,299.1 2.02,1.32 8.05,4.87 10.23,6.03l71.39 26.14c126.91,41.59 233.18,39.37 348.85,-29.22 29.56,-17.53 54.88,-45.84 70.68,-75.62 106.59,-200.87 -35.03,-193.92 253.11,-193.92 15.07,0 35.12,18.99 43.51,29.64 22.12,28.08 11.42,24.84 13.98,67.3 2.52,41.76 19.65,78.39 41.79,112.63 31.14,48.19 78.98,81.68 132.42,103.28 62.45,25.24 148.54,12.26 215.32,12.26 45.5,0 146.14,-36.08 182.01,-61.82 4.97,-3.57 18.3,-16.06 21.45,-19.2 88.27,-88.15 73.42,-55.91 123.06,-169.54 40.07,-91.73 10.29,-227.17 -32.53,-311.65 -49.05,-96.8 -66.91,-112.73 -119.1,-189.74l-123.51 -152.84c-10.43,-14.16 -7.53,-12.66 -16.07,-24.57 -0.33,-0.46 -13.23,-16.03 -14.77,-17.74l-84.98 -118.21c-7.33,-11 -10.08,-12.23 -17.41,-23.23 -199.8,-299.71 -23.6,-401 -133.49,-622.39 -6.22,-12.54 -18.1,-38.69 -25.1,-48.05 -18.61,-24.9 -52.81,-46.81 -82.57,-55.61 -101.3,-29.96 -225.93,-33.43 -325.03,4.28 -41.82,15.92 -71.96,34.96 -103.84,66.84 -44.57,44.58 -68.93,98.2 -94.92,157.05 -20.4,46.18 -8.64,67.68 -19.31,118.85 -17.37,83.28 -42.13,145.43 -44.16,232.19 -1.13,47.96 -10.84,76.54 -21.12,125.17l-33.49 104.69c-43.54,113.59 -75.12,152.2 -133.81,248.19l-41.97 63.69c-7.67,10.92 -7.41,8.5 -14.05,18.46 -8.16,12.24 -6.95,13.3 -15.11,25.54l-32.51 48.76c-0.96,1.44 -2.37,3.36 -3.36,4.77l-41.93 71.86c-26.55,53.02 -52.81,102.54 -52.81,166.63z"/>
   <path class="fil0" d="M7223.46 3685.26c0,118.53 17.48,168.4 81.84,259.52 1,1.42 2.28,3.45 3.26,4.88l32.6 40.54c18.62,15.28 -10.85,-7.38 9.44,6.82 60.75,42.52 114.05,90.75 178.02,130.84l116.8 86.39c1.24,1.12 2.99,2.77 4.22,3.9 34.9,31.95 175.27,113.97 175.27,222.99l0 65.02c0,22.04 -51.11,73.15 -73.14,73.15 -56.24,0 -51.93,2.93 -93.36,-28.56l-82.54 -55.63c-95.43,-68.16 -254.27,-87.07 -362.06,-22.99l-67.64 62.4c-78.9,93.14 -70.97,279.77 -4.77,378.81 8.13,12.16 10.73,13.07 20.86,27.9l32.6 40.55c10.08,8.26 4.99,3.73 14.38,10.01l64.69 49.09c44.4,27.93 106.08,47.11 159.14,60.31 105.2,26.18 233.25,14.54 343.08,14.54 103.36,0 274.34,-86.08 345.44,-158.47 22.43,-22.84 40.19,-40.47 60.97,-60.95l44.82 -52.71c91.2,-164.82 93.81,-354.99 23.89,-528.09 -25.16,-62.28 -57.96,-118.97 -95.15,-173.08 -6.2,-9.02 -1.98,-4.33 -10.18,-14.19l-36.55 -36.61c-33.19,-33.05 -64.68,-72.97 -102.8,-100.39l-140.47 -95.23c-49.23,-32.5 -73.72,-38.78 -73.72,-105.1 0,-67.14 97.58,-37.07 128.13,-14.34 81.34,60.52 217.23,47.79 290.71,-13.85l22.98 -25.79c20.06,-28.43 41.53,-57.85 53.95,-92.34 36.99,-102.69 25.4,-198.92 -31.16,-293.9 -28.39,-47.69 -79.9,-84.2 -130.04,-105.67 -100.92,-43.21 -208.92,-31.18 -318.31,-31.18 -109.23,0 -243.81,64.14 -340.14,115.01 -1.03,0.54 -19.26,11.03 -20.6,11.92 -0.65,0.44 -21.67,17.2 -22.62,18.01l-55.72 41.82c-9.09,8.13 -7.27,7.28 -16.17,16.33l-99 128.58c-5.7,13.55 -3.04,5.44 -8.41,24.11 -8.19,28.45 -22.54,77.88 -22.54,115.63z"/>
   <path class="fil1" d="M6503.9 4213.56c23.6,-105.9 -61.89,-159.78 -152.64,-174.96 -183.45,-30.68 -92.64,8.23 -253.31,-89.72 -35.18,-21.45 -254.17,21.05 -283.31,33.85 -74.38,32.66 -106.5,137.93 -90.96,237.3 35.95,229.99 173.82,292.08 394.67,286.3 187.4,-4.9 347.32,-121.23 385.55,-292.77z"/>
   <path class="fil0" d="M6752.05 3010.66c0,118.24 94.94,163.64 138.09,203.28 21,19.28 40.89,40.91 56.98,64.93l-52.79 61c-96.55,94.1 -72,219.4 1.69,242.06 44.1,13.56 127.94,8.4 172.74,-26.98 9.05,-7.15 16.99,-16.08 24.76,-24.01l109.63 -166.72c68.88,-136.81 91.05,-228.3 44.71,-369.83 -5.81,-17.72 -9.48,-32.19 -16.03,-49 -12.18,-31.31 -7.49,-15.35 -25.11,-39.9 -77.04,-107.33 -110.11,-98.02 -243.34,-98.02 -54.28,0 -88.39,14.76 -122.18,48.5 -3.19,3.19 -12.48,12.91 -16.02,16.49 -8.05,8.12 -16.74,16.26 -24.62,24.15 -10,10.02 2.11,-4.16 -12.03,12.35 -21.44,25.03 -36.48,59.55 -36.48,101.7z"/>
   <path class="fil2" d="M695.97 5672.54l1767.27 -0.79 4.78 -77.89c-586.66,-7.16 -1186.31,-0.62 -1775.69,-1.65l3.64 80.33z"/>
   <polygon class="fil2" points="6477.96,5672.86 8195.31,5672.41 8199.21,5592.94 6476.13,5592.35 "/>
   <path class="fil1" d="M1208.93 4074.17c71,-1.91 226.17,-63.76 280.97,-99.44 43.55,-28.36 85.75,-45.15 64.22,-123.35 -12.61,-45.76 -26.85,-104.4 -56.56,-129.85 -34.13,-29.23 -101.16,-39.95 -153.65,-15.52 -138.91,64.69 -212.28,268.98 -134.98,368.16z"/>
   <path class="fil2" d="M6188.45 5733.45l-1.23 -73.79c54.71,2.13 85.46,-4.78 126.41,14.17l1.53 44.93c-47.15,19.27 -69.22,12.52 -126.71,14.69zm1.73 -201.73c45.87,0.81 81,-3.81 113.49,17.35l-3.11 44.36 -113.85 4.74 3.47 -66.45zm-76.52 260.4c55.19,7.5 188.91,7.63 233.61,-16.06 28.67,-15.2 48.77,-38.96 45.89,-82.43 -3.47,-52.22 -29.68,-48.89 -55.39,-73.08 59.94,-38.62 57.44,-111.3 -11.07,-136.25 -44.84,-16.33 -167.04,-21.53 -212.21,-6.95l-0.83 314.77z"/>
   <path class="fil3" d="M3999.89 5794.5l69.27 1.08c61.38,-82.16 -49.54,-48.2 185.85,-58.57 48.14,66.06 -6.15,58.74 106.26,58.19 -2.67,-53.46 -110.71,-252.89 -133.24,-324.67l-92.3 0.86c-23.85,62.63 -133.68,283.97 -135.84,323.11z"/>
   <path class="fil2" d="M3113.39 5537.13c136.85,-52.08 178.87,158.68 66.84,193.21 -64.98,20.03 -117.36,-14.39 -129.26,-67.18 -6.26,-27.79 -3.56,-53.53 6.75,-79.66 13.76,-34.9 17.95,-32.02 55.67,-46.37zm-11.67 -67.75c-211.77,50.05 -150.24,386.88 95.07,325.33 204.99,-51.44 139.49,-380.77 -95.07,-325.33z"/>
   <path class="fil2" d="M5983.88 5471.21l-73.58 2.06c3.29,138.36 25.81,263.71 -68.53,263.69 -94.58,-0.01 -70.62,-120.64 -69.37,-260.15l-73.06 -6.9c-0.12,153.68 -33.86,330.88 142.5,331.18 174.12,0.29 144.5,-180.95 142.04,-329.88z"/>
   <path class="fil2" d="M2647.48 5709.22l-35.19 47.66c65.43,54.71 226.81,66.73 259.85,-18.93 36.78,-95.34 -52.37,-127.96 -120.15,-141.53 -129.29,-25.9 -41.52,-103.95 67.87,-45.99 25.72,-18.59 27.56,-20.29 37.59,-44.56 -56.36,-59.91 -212.15,-49.86 -238.29,20.48 -51.32,138.09 151.61,129.95 175.38,159.12 30.87,37.89 -12.45,52.17 -49.13,51.88 -44.69,-0.35 -66.29,-17.57 -97.93,-28.13z"/>
   <path class="fil2" d="M3711.65 5741.58c-19.43,-20.96 -21.24,-18.72 -40.01,-33.37 -36.46,13.19 -61.72,42.26 -118.53,22.59 -123.54,-42.76 -37.62,-288.05 112.16,-171.3 21.47,-20.56 32.66,-17.69 45.76,-46.74 -106.53,-96.67 -291.21,-39.14 -290.25,123.13 1.12,190.74 241.67,204.25 290.87,105.69z"/>
   <path class="fil2" d="M5249.97 5749.71c-15.27,-25.8 -18.92,-29.6 -42.19,-42.66l-10.2 7.13c-82.95,54.76 -167.3,5.55 -165.35,-86.49 2.33,-109.7 115.95,-108.88 174.91,-67.16 19.58,-21.14 30.16,-21.47 41.57,-49.03 -113.02,-77.28 -286.67,-45.5 -290.68,117.16 -4.11,166.67 185.52,225.61 291.94,121.05z"/>
   <path class="fil2" d="M5371.48 5795.35l224.04 -0.11 3.72 -61.61 -158.37 -0.17 -1.44 -195.07 0.4 -62.48 -72.46 -4.93c-0.77,65.02 -9.33,276.87 4.11,324.37z"/>
   <polygon class="fil2" points="4460.49,5794.73 4685.96,5795.29 4690.88,5733.31 4533.36,5733.1 4532.93,5470.93 4461.42,5472.11 "/>
   <path class="fil0" d="M3113.39 5537.13c-37.72,14.35 -41.91,11.47 -55.67,46.37 -10.31,26.13 -13.01,51.87 -6.75,79.66 11.9,52.79 64.28,87.21 129.26,67.18 112.03,-34.53 70.01,-245.29 -66.84,-193.21z"/>
   <path class="fil1" d="M2946.37 4226.99c13.72,-57.78 -41.42,-181.61 -88.19,-184.06 -56.77,-2.98 -93.47,116.99 -97.09,169.57l185.28 14.49z"/>
   <polygon class="fil2" points="3828,5793.41 3896.86,5795.49 3901.16,5471.55 3827.67,5472.15 "/>
   <path class="fil0" d="M6188.45 5733.45c57.49,-2.17 79.56,4.58 126.71,-14.69l-1.53 -44.93c-40.95,-18.95 -71.7,-12.04 -126.41,-14.17l1.23 73.79z"/>
   <path class="fil0" d="M6186.71 5598.17l113.85 -4.74 3.11 -44.36c-32.49,-21.16 -67.62,-16.54 -113.49,-17.35l-3.47 66.45z"/>
  </g>
 </g>
</svg>
